<?xml version="1.0" encoding="UTF-8" standalone="no"?>
<svg xmlns="http://www.w3.org/2000/svg" height="106" width="400" version="1.1" viewBox="0 0 105.83333 28.045857">
 <g transform="translate(0 -268.95)">
  <g transform="translate(.17039 .018617)">
   <g stroke-linejoin="round" transform="matrix(.093401 0 0 .093401 1.5648 273.35)" stroke="#fff" stroke-linecap="round" fill="none">
    <circle style="paint-order:markers fill stroke" cx="105" transform="matrix(1.2826,0,0,1.2826,-1.5934,-87.599)" cy="148.5" r="102.61" stroke-width="2.5"/>
    <path stroke-width="3.8479" d="m44.223 47.803 63.607 110.16 34.27-59.36"/>
    <path stroke-width="3.8479" d="m158.66 157.68 63.28-109.62"/>
   </g>
   <g aria-label="webunity" stroke-width=".38050" fill="#fff">
    <path d="m39.258 278.98q0.13215-0.12481 0.3157-0.12481 0.19089 0 0.3157 0.12481 0.0881 0.0881 0.13215 0.22759l1.9896 5.9689 2.0117-6.057q0.02937-0.0734 0.0881-0.13215 0.13215-0.13215 0.33772-0.13215 0.19089 0 0.32304 0.13215t0.13215 0.32304q0 0.0881-0.03671 0.19089l-2.4301 7.2904q-0.02937 0.0881-0.11013 0.16886-0.11747 0.11747-0.3157 0.11747t-0.32304-0.12481q-0.06608-0.0661-0.10279-0.16152l-2.0117-6.035-2.0117 6.035q-0.02937 0.0881-0.09544 0.15418-0.13215 0.13215-0.33038 0.13215t-0.32304-0.12481q-0.06608-0.0661-0.10278-0.16152l-2.4301-7.2904q-0.03671-0.11013-0.03671-0.19089 0-0.19089 0.13215-0.32304t0.32304-0.13215 0.33038 0.13215q0.05139 0.0514 0.0881 0.13949l2.019 6.0496 1.9896-5.9689q0.05139-0.14683 0.13215-0.22759z"/>
    <path d="m54.031 282.51q-0.20557-1.0939-0.91772-1.8061-0.93975-0.93975-2.2613-0.93975-1.3215 0-2.2613 0.93975-0.70481 0.70481-0.92507 1.8061zm-0.83696 2.7972q0.19089 0 0.32304 0.13949 0.13215 0.13215 0.13215 0.32304t-0.11747 0.3157q-1.1453 0.99114-2.6798 0.99114-1.7033 0-2.9074-1.204-1.2041-1.2041-1.2041-2.9074t1.2041-2.9074q1.2041-1.204 2.9074-1.204t2.9074 1.204q1.2041 1.2041 1.2041 2.9074 0 0.19089-0.13215 0.32304-0.13215 0.13216-0.32304 0.13216h-6.842q0.22025 1.1013 0.92507 1.8061 0.93975 0.93975 2.2613 0.93975 0.60203 0 1.116-0.19089 0.51393-0.19823 0.93975-0.56532 0.12481-0.10278 0.28633-0.10278z"/>
    <path d="m60.977 286.16q1.3215 0 2.2613-0.93975 0.93241-0.93241 0.93241-2.2613t-0.93241-2.2613q-0.93975-0.93975-2.2613-0.93975-1.3215 0-2.2613 0.93975-0.93975 0.93975-0.93975 2.2613 0 1.3215 0.93975 2.2613 0.93975 0.93975 2.2613 0.93975zm-3.201-5.822 0.29367-0.28633q1.2041-1.204 2.9074-1.204t2.9074 1.204q1.2041 1.2041 1.2041 2.9074t-1.2041 2.9074q-1.2041 1.204-2.9074 1.204t-2.9074-1.204q-1.2041-1.2041-1.2041-2.9074v-7.1803q0-0.19089 0.13215-0.32304t0.32304-0.13215 0.32304 0.13215 0.13215 0.32304z"/>
    <path d="m74.612 286.62q0 0.19089-0.13949 0.32304-0.13215 0.13215-0.32304 0.13215t-0.32304-0.13215-0.13215-0.32304v-0.85165q-1.3509 1.3068-2.8927 1.3068-1.5638 0-2.6944-1.1086-1.1086-1.116-1.1086-2.7018v-3.9572q0-0.19089 0.13215-0.32304t0.32304-0.13215 0.32304 0.13215 0.13215 0.32304v3.9572q0 1.204 0.84431 2.0484 0.87367 0.85165 2.0484 0.85165 1.1894 0 2.041-0.85165 0.85165-0.84431 0.85165-2.0484v-3.9572q0-0.19089 0.13215-0.32304t0.32304-0.13215 0.32304 0.13215q0.13949 0.13215 0.13949 0.32304z"/>
    <path d="m76.537 279.31q0-0.19089 0.13215-0.32304t0.32304-0.13215 0.32304 0.13215 0.13215 0.32304v0.85165q1.3509-1.3068 2.8927-1.3068 1.5858 0 2.6871 1.116 1.1233 1.116 1.1233 2.6944v3.9572q0 0.19089-0.13949 0.32304-0.13215 0.13215-0.32304 0.13215t-0.32304-0.13215-0.13215-0.32304v-3.9572q0-1.2114-0.85165-2.041-0.85165-0.85899-2.041-0.85899t-2.0484 0.85899q-0.84431 0.83697-0.84431 2.041v3.9572q0 0.19089-0.13215 0.32304t-0.32304 0.13215-0.32304-0.13215-0.13215-0.32304z"/>
    <path d="m87.793 276.87q0 0.25697-0.1762 0.43317t-0.43317 0.1762q-0.24962 0-0.43317-0.1762-0.1762-0.1762-0.1762-0.43317 0-0.24962 0.1762-0.42582 0.18354-0.18355 0.43317-0.18355 0.25696 0 0.43317 0.18355 0.1762 0.1762 0.1762 0.42582zm-1.0646 2.4375q0-0.19089 0.13215-0.32304t0.32304-0.13215 0.32304 0.13215q0.13949 0.13215 0.13949 0.32304v7.3124q0 0.19089-0.13949 0.32304-0.13215 0.13215-0.32304 0.13215t-0.32304-0.13215-0.13215-0.32304z"/>
    <path d="m94.461 286.16q0.19089 0 0.32304 0.13215 0.13949 0.13215 0.13949 0.32304t-0.13949 0.32304q-0.13215 0.13215-0.32304 0.13215-2.8927 0-2.8927-2.8927v-4.4198h-0.756q-0.19089 0-0.33038-0.13215-0.13215-0.13215-0.13215-0.32304t0.13215-0.32304q0.13949-0.13215 0.33038-0.13215h0.7562v-3.0762q0-0.19089 0.13215-0.32304 0.13215-0.13216 0.32304-0.13216t0.32304 0.13216q0.13949 0.13215 0.13949 0.32304v3.0762h1.3729q0.19089 0 0.32304 0.13215 0.13949 0.13215 0.13949 0.32304t-0.13949 0.32304q-0.13215 0.13215-0.32304 0.13215h-1.373v4.4198q0 1.9823 1.9749 1.9823z"/>
    <path d="m99.932 286.61-2.9734-7.1216q-0.02937-0.0954-0.02937-0.18354 0-0.19089 0.13215-0.32304 0.13949-0.13215 0.33038-0.13215t0.32304 0.13215q0.06608 0.0661 0.11013 0.18355l2.6063 6.2405 2.6063-6.2405q0.0441-0.11747 0.12482-0.19823 0.11746-0.11747 0.31569-0.11747 0.19089 0 0.32304 0.13215t0.1395 0.32304q0 0.0734-0.0294 0.16152l-4.5226 10.822q-0.03671 0.10278-0.10278 0.16886-0.13949 0.13949-0.33038 0.13949t-0.32304-0.13215-0.13215-0.32304q0-0.0954 0.02937-0.16152z"/>
   </g>
  </g>
 </g>
</svg>
